<svg width="1440" height="377" viewBox="0 0 1440 377" fill="none" xmlns="http://www.w3.org/2000/svg">
<mask id="mask0_1142_16002" style="mask-type:alpha" maskUnits="userSpaceOnUse" x="-93" y="-9" width="1597" height="386">
<line x1="21.5" y1="1" x2="21.5" y2="367" stroke="url(#paint0_linear_1142_16002)"/>
<line x1="121.5" y1="1" x2="121.5" y2="367" stroke="url(#paint1_linear_1142_16002)"/>
<line x1="221.5" y1="1" x2="221.5" y2="367" stroke="url(#paint2_linear_1142_16002)"/>
<line x1="321.5" y1="1" x2="321.5" y2="367" stroke="url(#paint3_linear_1142_16002)"/>
<line x1="421.5" y1="1" x2="421.5" y2="367" stroke="url(#paint4_linear_1142_16002)"/>
<line x1="521.5" y1="1" x2="521.5" y2="367" stroke="url(#paint5_linear_1142_16002)"/>
<line x1="621.5" y1="1" x2="621.5" y2="367" stroke="url(#paint6_linear_1142_16002)"/>
<line x1="721.5" y1="1" x2="721.5" y2="367" stroke="url(#paint7_linear_1142_16002)"/>
<line x1="821.5" y1="1" x2="821.5" y2="367" stroke="url(#paint8_linear_1142_16002)"/>
<line x1="921.5" y1="1" x2="921.5" y2="367" stroke="url(#paint9_linear_1142_16002)"/>
<line x1="1021.5" y1="1" x2="1021.5" y2="367" stroke="url(#paint10_linear_1142_16002)"/>
<line x1="1121.5" y1="1" x2="1121.5" y2="367" stroke="url(#paint11_linear_1142_16002)"/>
<line x1="1221.5" y1="1" x2="1221.5" y2="367" stroke="url(#paint12_linear_1142_16002)"/>
<line x1="1321.5" y1="1" x2="1321.5" y2="367" stroke="url(#paint13_linear_1142_16002)"/>
<line x1="1421.5" y1="1" x2="1421.5" y2="367" stroke="url(#paint14_linear_1142_16002)"/>
<line x1="-83" y1="0.5" x2="1494" y2="0.5" stroke="url(#paint15_linear_1142_16002)"/>
<line x1="-83" y1="100.5" x2="1494" y2="100.5" stroke="url(#paint16_linear_1142_16002)"/>
<line x1="-83" y1="200.5" x2="1494" y2="200.5" stroke="url(#paint17_linear_1142_16002)"/>
<line x1="-83" y1="300.5" x2="1494" y2="300.5" stroke="url(#paint18_linear_1142_16002)"/>
</mask>
<g mask="url(#mask0_1142_16002)">
<rect x="-93" y="-9" width="1597" height="655" fill="url(#paint19_linear_1142_16002)"/>
</g>
<defs>
<linearGradient id="paint0_linear_1142_16002" x1="21" y1="184" x2="20" y2="184" gradientUnits="userSpaceOnUse">
<stop stop-color="white"/>
<stop offset="1" stop-color="white" stop-opacity="0"/>
</linearGradient>
<linearGradient id="paint1_linear_1142_16002" x1="121" y1="184" x2="120" y2="184" gradientUnits="userSpaceOnUse">
<stop stop-color="white"/>
<stop offset="1" stop-color="white" stop-opacity="0"/>
</linearGradient>
<linearGradient id="paint2_linear_1142_16002" x1="221" y1="184" x2="220" y2="184" gradientUnits="userSpaceOnUse">
<stop stop-color="white"/>
<stop offset="1" stop-color="white" stop-opacity="0"/>
</linearGradient>
<linearGradient id="paint3_linear_1142_16002" x1="321" y1="184" x2="320" y2="184" gradientUnits="userSpaceOnUse">
<stop stop-color="white"/>
<stop offset="1" stop-color="white" stop-opacity="0"/>
</linearGradient>
<linearGradient id="paint4_linear_1142_16002" x1="421" y1="184" x2="420" y2="184" gradientUnits="userSpaceOnUse">
<stop stop-color="white"/>
<stop offset="1" stop-color="white" stop-opacity="0"/>
</linearGradient>
<linearGradient id="paint5_linear_1142_16002" x1="521" y1="184" x2="520" y2="184" gradientUnits="userSpaceOnUse">
<stop stop-color="white"/>
<stop offset="1" stop-color="white" stop-opacity="0"/>
</linearGradient>
<linearGradient id="paint6_linear_1142_16002" x1="621" y1="184" x2="620" y2="184" gradientUnits="userSpaceOnUse">
<stop stop-color="white"/>
<stop offset="1" stop-color="white" stop-opacity="0"/>
</linearGradient>
<linearGradient id="paint7_linear_1142_16002" x1="721" y1="184" x2="720" y2="184" gradientUnits="userSpaceOnUse">
<stop stop-color="white"/>
<stop offset="1" stop-color="white" stop-opacity="0"/>
</linearGradient>
<linearGradient id="paint8_linear_1142_16002" x1="821" y1="184" x2="820" y2="184" gradientUnits="userSpaceOnUse">
<stop stop-color="white"/>
<stop offset="1" stop-color="white" stop-opacity="0"/>
</linearGradient>
<linearGradient id="paint9_linear_1142_16002" x1="921" y1="184" x2="920" y2="184" gradientUnits="userSpaceOnUse">
<stop stop-color="white"/>
<stop offset="1" stop-color="white" stop-opacity="0"/>
</linearGradient>
<linearGradient id="paint10_linear_1142_16002" x1="1021" y1="184" x2="1020" y2="184" gradientUnits="userSpaceOnUse">
<stop stop-color="white"/>
<stop offset="1" stop-color="white" stop-opacity="0"/>
</linearGradient>
<linearGradient id="paint11_linear_1142_16002" x1="1121" y1="184" x2="1120" y2="184" gradientUnits="userSpaceOnUse">
<stop stop-color="white"/>
<stop offset="1" stop-color="white" stop-opacity="0"/>
</linearGradient>
<linearGradient id="paint12_linear_1142_16002" x1="1221" y1="184" x2="1220" y2="184" gradientUnits="userSpaceOnUse">
<stop stop-color="white"/>
<stop offset="1" stop-color="white" stop-opacity="0"/>
</linearGradient>
<linearGradient id="paint13_linear_1142_16002" x1="1321" y1="184" x2="1320" y2="184" gradientUnits="userSpaceOnUse">
<stop stop-color="white"/>
<stop offset="1" stop-color="white" stop-opacity="0"/>
</linearGradient>
<linearGradient id="paint14_linear_1142_16002" x1="1421" y1="184" x2="1420" y2="184" gradientUnits="userSpaceOnUse">
<stop stop-color="white"/>
<stop offset="1" stop-color="white" stop-opacity="0"/>
</linearGradient>
<linearGradient id="paint15_linear_1142_16002" x1="705.5" y1="1" x2="705.5" y2="2" gradientUnits="userSpaceOnUse">
<stop stop-color="white"/>
<stop offset="1" stop-color="white" stop-opacity="0"/>
</linearGradient>
<linearGradient id="paint16_linear_1142_16002" x1="705.5" y1="101" x2="705.5" y2="102" gradientUnits="userSpaceOnUse">
<stop stop-color="white"/>
<stop offset="1" stop-color="white" stop-opacity="0"/>
</linearGradient>
<linearGradient id="paint17_linear_1142_16002" x1="705.5" y1="201" x2="705.5" y2="202" gradientUnits="userSpaceOnUse">
<stop stop-color="white"/>
<stop offset="1" stop-color="white" stop-opacity="0"/>
</linearGradient>
<linearGradient id="paint18_linear_1142_16002" x1="705.5" y1="301" x2="705.5" y2="302" gradientUnits="userSpaceOnUse">
<stop stop-color="white"/>
<stop offset="1" stop-color="white" stop-opacity="0"/>
</linearGradient>
<linearGradient id="paint19_linear_1142_16002" x1="705.5" y1="-9" x2="705.5" y2="646" gradientUnits="userSpaceOnUse">
<stop stop-color="#E9E9E8"/>
<stop offset="1" stop-color="#FFFFF7" stop-opacity="0"/>
</linearGradient>
</defs>
</svg>
